<!-- <svg xmlns="http://www.w3.org/2000/svg" viewBox="0 0 64 64" style="enable-background:new 0 0 64 64" xml:space="preserve">
  <path d="M31 30 10 48h43.5l-3-5.5C52.8 38.3 54 33.3 54 28 54 12.5 43.5 2 28 2l3 4.5L10 24v4l5.5 4 8.5-4 7 2z" style="fill:#fff"/>
  <path d="m33.3 7-2.6-3L8 23.1v5.8l2.9 2.9c2.8 2.8 7.3 3.1 10.5.7l3.1-2.3 3.3.8-17.7 14.8H10l-.4.5L8 47.6V56c0 4.4 3.6 8 8 8h32c4.4 0 8-3.6 8-8v-8l-7-4 6-20-7-10.2v.2c0 18.8-12.5 34-28 34-1.9 0-3.7-.2-5.5-.7L36.3 29l-12.7-3.2-4.6 3.5c-1.6 1.2-3.8 1-5.2-.4L12 27.2V25L33.3 7z" style="fill:#acbdc5"/>
  <path d="M24.1 0H28c15.5 0 28 12.5 28 28 0 5.7-1.7 10.9-4.6 15.3l4.6 4.6V56c0 4.4-3.6 8-8 8h-4v-4h4c2.2 0 4-1.8 4-4v-6.4l-5.8-5.8 1-1.4c3-4 4.8-9 4.8-14.4 0-11.8-8.6-21.7-19.8-23.6l3.9 5.5-3.2 2.3L24.1 0z" style="fill-rule:evenodd;clip-rule:evenodd;fill:#314a52"/>
</svg> -->


<svg xmlns="http://www.w3.org/2000/svg" viewBox="0 0 48 48">
  <defs>
    <style>
      .cls-1{fill:#fff}
      .cls-3{fill:#256494}
    </style>
  </defs>
  <g id="_3-Game_Controller" data-name="3-Game Controller">
    <circle class="cls-1" cx="36" cy="38" r="2"/>
    <circle class="cls-1" cx="41" cy="33" r="2"/>
    <circle class="cls-1" cx="34" cy="31" r="2"/>
    <path class="cls-1" d="M16 33v2a1 1 0 0 1-1 1h-2v2a1 1 0 0 1-1 1h-2a1 1 0 0 1-1-1v-2H7a1 1 0 0 1-1-1v-2a1 1 0 0 1 1-1h2v-2a1 1 0 0 1 1-1h2a1 1 0 0 1 1 1v2h2a1 1 0 0 1 1 1zM27 22v2h-6v-4h6v2z"/>
    <path d="M37 24a10 10 0 1 1-10 10h-6a10 10 0 1 1-10-10h26zm6 9a2 2 0 1 0-2 2 2.006 2.006 0 0 0 2-2zm-5 5a2 2 0 1 0-2 2 2.006 2.006 0 0 0 2-2zm-2-7a2 2 0 1 0-2 2 2.006 2.006 0 0 0 2-2zm-20 4v-2a1 1 0 0 0-1-1h-2v-2a1 1 0 0 0-1-1h-2a1 1 0 0 0-1 1v2H7a1 1 0 0 0-1 1v2a1 1 0 0 0 1 1h2v2a1 1 0 0 0 1 1h2a1 1 0 0 0 1-1v-2h2a1 1 0 0 0 1-1z" style="fill:#65b1fc"/>
    <path class="cls-3" d="M37 23H11a11 11 0 1 0 10.955 12h4.09A11 11 0 1 0 37 23zm0 20a9.011 9.011 0 0 1-9-9 1 1 0 0 0-1-1h-6a1 1 0 0 0-1 1 9 9 0 1 1-9-9h26a9 9 0 0 1 0 18zM35 7v3a1.882 1.882 0 0 1-2 2h-6a3.887 3.887 0 0 0-4 4v3h-2a1 1 0 0 0-1 1v2h2v-1h4v1h2v-2a1 1 0 0 0-1-1h-2v-3a1.882 1.882 0 0 1 2-2h6a3.887 3.887 0 0 0 4-4V7a3.887 3.887 0 0 0-4-4H19v2h14a1.882 1.882 0 0 1 2 2z"/>
    <path class="cls-3" d="M15 31h-1v-1a2 2 0 0 0-2-2h-2a2 2 0 0 0-2 2v1H7a2 2 0 0 0-2 2v2a2 2 0 0 0 2 2h1v1a2 2 0 0 0 2 2h2a2 2 0 0 0 2-2v-1h1a2 2 0 0 0 2-2v-2a2 2 0 0 0-2-2zm0 4h-2a1 1 0 0 0-1 1v2h-2v-2a1 1 0 0 0-1-1H7v-2h2a1 1 0 0 0 1-1v-2h2v2a1 1 0 0 0 1 1h2zM36 35a3 3 0 1 0 3 3 3 3 0 0 0-3-3zm0 4a1 1 0 1 1 1-1 1 1 0 0 1-1 1zM41 30a3 3 0 1 0 3 3 3 3 0 0 0-3-3zm0 4a1 1 0 1 1 1-1 1 1 0 0 1-1 1zM37 31a3 3 0 1 0-3 3 3 3 0 0 0 3-3zm-4 0a1 1 0 1 1 1 1 1 1 0 0 1-1-1zM19 27h10v2H19z"/>
  </g>
</svg>
